<?xml version="1.0" encoding="UTF-8"?> <svg xmlns="http://www.w3.org/2000/svg" xmlns:xlink="http://www.w3.org/1999/xlink" id="Layer_2" data-name="Layer 2" viewBox="0 0 300 300"> <defs> <style> .cls-1 { fill: #fff; } .cls-2 { fill: url(#linear-gradient); } </style> <linearGradient id="linear-gradient" x1="74.39" y1="94.85" x2="224.46" y2="244.91" gradientUnits="userSpaceOnUse"> <stop offset="0" stop-color="#b79d4f"></stop> <stop offset=".49" stop-color="#dcc080"></stop> <stop offset="1" stop-color="#b79d4f"></stop> </linearGradient> </defs> <g id="Layer_1-2" data-name="Layer 1"> <g> <circle class="cls-1" cx="150" cy="150" r="150"></circle> <path class="cls-2" d="m144.03,64.97c-.4-.1-.77-.24-1.16-.33-10.13-2.66-20.26-5.32-30.24-7.94-.35.31-.56.41-.64.57-1.52,3.04-3.05,6.08-4.53,9.14-8.59,17.87-16.54,36-20.16,55.64-2.61,14.18-2.27,27.94,5.17,41.06,2.26,3.97,3.27,9.12,3.39,13.76.36,14.63-3.93,28.42-9.05,41.93-1.67,4.39-5.14,7.38-9.83,7.9-3.9.43-7.91-.16-11.87-.24-.68-.01-1.38.25-2.07.37.51.56,1.01,1.14,1.56,1.66.2.18.56.2.85.28,13.62,3.6,27.25,7.19,40.89,10.74,1.06.28,2.19.27,3.3.39.12-.28.22-.56.34-.83-.54-.41-1.01-.93-1.61-1.18-1.28-.55-2.65-.88-3.94-1.43-8.2-3.51-13.32-9.43-10.95-19.06,2.43-9.89,4.9-19.79,8.1-29.44,3.04-9.16,8.94-16.21,17.39-21.43,4.38-2.7,8.08-6.84,11.31-10.94,5.95-7.55,9.35-16.49,11.95-25.68,5.21-18.39,7-37.29,8.16-56.29q.43-6.9-6.38-8.65Zm4.31,5.6c-.25,2.29-.24,4.6-.34,6.9-1.06,14.26-2.15,28.53-5.8,42.44-3.17,12.07-7.4,23.77-15.57,33.43-3.16,3.73-7.11,7.15-11.34,9.57-7.67,4.37-15.13,1.99-19.91-5.51-3.71-5.81-5.13-12.34-5.48-19.1-.89-16.73,2.96-32.59,9.33-47.88,4.08-9.78,8.74-19.3,13.08-28.98.74-1.64,1.58-2.23,3.42-1.72,10.12,2.75,20.27,5.45,30.43,8.05,1.65.43,2.38,1.02,2.18,2.8Zm86.87,160.95c-.46-.06-.96.24-1.44.33-11.27,2.1-18.53-.9-21.78-12.19-2.23-7.77-4.39-15.59-6-23.51-2.18-10.76-1.62-21.24,4.57-30.94,1.56-2.45,2.35-5.52,3.02-8.41,2.66-11.49,1.35-22.9-1.44-34.15-4.8-19.33-13.09-37.29-21.82-55.08-.85-1.71-1.9-1.28-3.21-.94-10.82,2.84-21.63,5.74-32.5,8.39-2.38.58-2.71,1.63-2.54,3.71.79,9.27,1.21,18.57,2.26,27.8,1.64,14.52,4.06,28.91,9.83,42.49,4.17,9.8,9.5,18.87,18.93,24.49,7.31,4.36,12.68,10.35,15.4,18.17,3.36,9.69,5.95,19.67,8.53,29.61.73,2.81.86,6.05.26,8.88-1.46,6.9-7.07,9.74-13.07,11.93-1.03.37-2.02.85-3.03,1.27.11.39.21.78.33,1.18,1.09-.14,2.22-.17,3.29-.44,11.32-2.89,22.64-5.81,33.95-8.72,2.32-.6,4.65-1.17,6.94-1.88.51-.16.85-.88,1.26-1.34-.58-.24-1.14-.59-1.74-.67Zm-48.4-61.53c-7.57-3.55-12.5-9.83-16.56-16.82-7.29-12.55-11.13-26.27-13.01-40.53-1.22-9.2-1.95-18.47-2.9-27.72-.11-7.52-.12-7.54,7.15-9.43,8.21-2.14,16.43-4.28,24.67-6.28.86-.21,2.51.2,2.81.81,8.29,16.97,16.67,33.92,20.34,52.67,2.11,10.76,3.19,21.63.14,32.37-1.04,3.68-2.69,7.37-4.87,10.5-4.33,6.23-10.87,7.67-17.76,4.43Zm-44.31-73.62c-13.59.14-27.18.25-40.77.52-.82.01-2.07,1.13-2.36,2-4.32,12.56-7.08,25.4-6.37,38.78.32,5.94,1.44,11.71,4.6,16.89,4.19,6.87,11.01,8.95,17.66,4.51,4.22-2.81,8.2-6.52,11.12-10.65,10.91-15.46,14.54-33.44,16.84-51.75-.35-.15-.54-.3-.72-.3Zm-33.03,19.98c0-1.28,1.04-2.32,2.32-2.32s2.32,1.04,2.32,2.32-1.04,2.32-2.32,2.32-2.32-1.04-2.32-2.32Zm5.72,14.26c-1,0-1.81-.8-1.81-1.8s.81-1.8,1.81-1.8,1.8.8,1.8,1.8-.8,1.8-1.8,1.8Zm9.4-7.67c-1.22,0-2.22-1-2.22-2.22s1-2.22,2.22-2.22,2.22,1,2.22,2.22-1,2.22-2.22,2.22Zm76.51-17.76c-.29-.79-1.93-1.56-2.93-1.56-12.3.05-24.59.25-36.9.42-.58,0-1.14.12-2.01.21.34,2.61.65,5.05.97,7.5,1.71,13.18,5.09,25.87,11.4,37.66,3.52,6.58,7.74,12.65,14.44,16.47,6.92,3.94,13.25,2.61,17.19-4.32,2.12-3.72,3.62-8.09,4.22-12.34,2.16-15.23-1.18-29.81-6.37-44.03Zm-24.99,19.22c-1.05-.1-1.82-1.03-1.72-2.08.1-1.05,1.03-1.82,2.08-1.72,1.05.1,1.82,1.03,1.72,2.08-.1,1.05-1.03,1.82-2.08,1.72Zm7.54,1.94c-.98-.09-1.71-.96-1.63-1.96.1-.98.97-1.71,1.96-1.62,1,.09,1.72.96,1.63,1.96-.09.98-.96,1.71-1.96,1.62Zm6.07-10.9c1.28.12,2.22,1.24,2.1,2.53-.12,1.27-1.25,2.2-2.53,2.09-1.27-.12-2.22-1.25-2.1-2.53.13-1.27,1.25-2.22,2.53-2.09Zm-.1,18.13c-1.21-.12-2.11-1.2-1.99-2.41.11-1.22,1.19-2.12,2.41-2,1.21.12,2.11,1.19,1.99,2.41-.11,1.22-1.19,2.11-2.41,2Z"></path> </g> </g> </svg> 